<svg width="2107" height="509" viewBox="0 0 2107 509" fill="none" xmlns="http://www.w3.org/2000/svg">
<path d="M858.013 62.7151V381.651H1056.39V446.315H779.103V62.7151H858.013ZM1267.62 310.411V172.315H1342.15V446.315H1267.62V401.379C1248.99 434.259 1217.75 452.891 1179.94 452.891C1103.22 452.891 1091.71 374.527 1091.71 326.303V172.315H1166.24V326.303C1166.24 360.279 1174.46 390.967 1208.44 390.967C1244.61 390.967 1267.62 358.087 1267.62 310.411ZM1724.05 164.095C1781.04 164.095 1810.63 205.743 1810.63 276.435V446.315H1736.11V279.723C1736.11 249.035 1722.95 228.211 1697.75 228.211C1664.32 228.211 1640.75 260.543 1640.75 310.411V446.315H1566.23V279.723C1566.23 247.391 1552.53 226.019 1526.77 226.019C1493.89 226.019 1468.68 258.899 1468.68 311.507V446.315H1394.7V172.315H1468.68V221.087C1482.93 187.111 1515.26 164.095 1555.81 164.095C1595.27 164.095 1625.41 187.111 1636.37 221.635C1651.17 186.563 1682.4 164.095 1724.05 164.095ZM1980.33 164.095C2064.17 164.095 2106.91 213.963 2106.91 291.231V446.315H2040.06V399.187C2019.78 434.807 1986.35 454.535 1941.42 454.535C1881.69 454.535 1846.61 419.463 1846.61 372.335C1846.61 316.987 1895.39 283.559 1972.65 283.559C1993.48 283.559 2014.3 285.751 2032.39 289.587C2031.84 253.419 2018.69 227.115 1979.78 227.115C1951.83 227.115 1935.39 240.815 1940.32 265.475H1865.79C1851.55 202.455 1907.99 164.095 1980.33 164.095ZM1958.41 398.091C1993.48 398.091 2021.97 376.171 2034.58 342.743C2017.04 337.263 1996.22 334.523 1979.78 334.523C1938.68 334.523 1921.14 348.223 1921.14 369.047C1921.14 388.227 1935.39 398.091 1958.41 398.091Z" fill="#B38DFF"/>
<path d="M367.048 0.00201335C368.169 0.00501335 368.169 0.00501005 369.313 0.00801005C380.904 0.0560101 392.118 0.601017 403.423 3.31502C404.11 3.47102 404.796 3.62602 405.504 3.78702C429.085 9.29302 449.149 21.664 466.423 38.315C467.153 38.981 467.882 39.648 468.634 40.334C474.574 45.91 479.068 52.469 483.423 59.315C484.139 60.438 484.139 60.438 484.869 61.583C488.534 67.495 491.456 73.49 494.048 79.94C494.435 80.899 494.822 81.857 495.22 82.845C498.396 90.904 500.809 98.797 502.423 107.315C502.757 109.022 502.757 109.022 503.099 110.764C506.22 130.402 506.326 152.972 501.423 172.315C501.224 173.114 501.026 173.913 500.821 174.736C495.13 196.941 484.436 216.029 469.423 233.315C468.665 234.219 467.907 235.122 467.126 236.053C445.34 261.222 413.209 275.665 381.423 283.315C385.596 288.278 389.932 293.074 394.325 297.842C396.875 300.614 399.397 303.403 401.86 306.252C404.973 309.845 408.192 313.33 411.423 316.815C415.23 320.921 418.986 325.056 422.65 329.292C424.874 331.83 427.148 334.321 429.423 336.815C432.249 339.912 435.055 343.019 437.798 346.19C440.38 349.168 443.04 352.063 445.729 354.945C450.777 360.358 455.59 365.867 460.216 371.651C462.495 374.402 464.903 376.974 467.36 379.565C478.355 391.554 487.925 405.47 487.423 422.315C486.371 430.955 483.842 437.532 478.423 444.315C477.817 445.132 477.211 445.95 476.587 446.792C466.144 458.969 449.153 464.482 434.021 467.831C433.056 468.046 432.092 468.261 431.099 468.483C422.045 470.465 412.965 471.977 403.798 473.315C401.93 473.594 400.061 473.873 398.193 474.152C371.446 478.124 344.66 481.843 317.883 485.608C316.922 485.743 315.96 485.878 314.97 486.018C310.214 486.686 305.458 487.354 300.702 488.019C291.849 489.259 282.999 490.518 274.155 491.826C271.762 492.177 269.37 492.528 266.977 492.879C264.797 493.201 262.618 493.531 260.439 493.862C246.395 495.948 234.464 496.685 222.462 488.034C215.817 482.433 212.68 475.878 211.423 467.315C210.972 458.308 214.668 451.448 219.548 444.127C231.957 430.611 252.293 428.486 269.443 425.995C271.397 425.701 273.35 425.407 275.304 425.113C281.674 424.158 288.048 423.233 294.423 422.315C295.526 422.156 296.628 421.997 297.764 421.833C316.426 419.146 335.098 416.535 353.771 413.929C360.933 412.929 368.094 411.927 375.254 410.92C378.565 410.456 381.877 409.996 385.189 409.536C387.186 409.255 389.183 408.975 391.18 408.694C392.093 408.569 393.006 408.443 393.947 408.314C394.777 408.196 395.606 408.079 396.461 407.958C397.183 407.857 397.904 407.756 398.647 407.653C400.52 407.38 400.52 407.38 402.423 406.315C396.142 398.905 389.813 391.564 383.216 384.433C380.764 381.782 378.347 379.11 375.985 376.377C372.873 372.785 369.654 369.299 366.423 365.815C362.593 361.684 358.81 357.524 355.122 353.264C352.365 350.101 349.547 346.993 346.735 343.877C344.502 341.402 342.275 338.921 340.048 336.44C337.142 333.21 334.219 329.996 331.279 326.796C328.99 324.306 326.707 321.81 324.423 319.315C323.606 318.427 322.788 317.539 321.946 316.624C321.217 315.82 320.487 315.017 319.735 314.19C319.092 313.486 318.449 312.782 317.786 312.057C316.423 310.315 316.423 310.315 316.423 308.315C315.763 308.315 315.103 308.315 314.423 308.315C312.987 306.7 311.622 305.023 310.298 303.315C309.574 302.387 308.849 301.459 308.103 300.502C307.548 299.781 306.994 299.059 306.423 298.315C265.72 306.257 224.569 315.705 186.423 332.315C184.866 332.978 183.308 333.641 181.751 334.303C143.009 350.827 143.009 350.827 114.423 379.315C113.763 379.315 113.103 379.315 112.423 379.315C112.423 379.975 112.423 380.635 112.423 381.315C111.763 381.315 111.103 381.315 110.423 381.315C110.056 382.152 110.056 382.152 109.681 383.006C108.183 385.755 106.343 387.883 104.298 390.252C88.1863 409.808 77.9013 434.691 72.6503 459.331C72.5003 460.034 72.3503 460.737 72.1953 461.461C71.4583 464.951 70.7493 468.445 70.0823 471.949C67.6613 484.268 63.6143 495.395 53.4233 503.315C44.7943 508.696 35.3794 509.892 25.4074 507.631C15.2204 504.202 8.57834 498.755 3.42334 489.315C-5.86166 468.973 5.98734 440.13 12.4233 420.315C12.6613 419.582 12.8993 418.848 13.1443 418.093C23.7113 386.332 41.9593 357.868 65.0103 333.791C66.3193 332.424 67.6163 331.046 68.9113 329.667C75.5323 322.797 82.8143 317.029 90.4233 311.315C90.9693 310.897 91.5153 310.48 92.0783 310.05C143.428 270.905 208.84 256.487 270.423 242.315C270.096 241.722 269.769 241.129 269.432 240.518C266.233 234.703 263.054 228.878 259.897 223.041C259.033 221.443 258.167 219.847 257.297 218.253C253.153 210.632 249.979 202.82 246.985 194.69C246.631 193.728 246.276 192.767 245.91 191.776C245.423 190.415 245.423 190.415 244.927 189.026C244.636 188.214 244.346 187.403 244.046 186.566C243.423 184.315 243.423 184.315 243.423 180.315C242.763 179.985 242.103 179.655 241.423 179.315C240.721 176.627 240.4 173.916 239.997 171.167C239.592 168.452 239.143 165.782 238.63 163.088C234.832 142.215 234.614 120.042 239.423 99.315C239.584 98.61 239.745 97.906 239.911 97.18C247.567 65.085 268.241 36.204 296.333 18.85C318.221 5.84602 341.664 -0.125987 367.048 0.00201335ZM320.423 80.315C306.946 96.471 303.156 117.798 304.423 138.315C307.344 170.068 320.544 201.127 338.423 227.315C364.17 226.049 394.933 214.575 413.423 196.315C432.208 175.509 437.803 150.848 436.423 123.315C434.578 104.789 426.698 86.55 412.423 74.315C386.53 54.952 342.914 55.58 320.423 80.315Z" fill="#B38DFF"/>
</svg>
